<svg xmlns="http://www.w3.org/2000/svg" xmlns:svg="http://www.w3.org/2000/svg" xmlns:xlink="http://www.w3.org/1999/xlink" version="1.0" height="526pt" width="892.5500000000001pt" viewBox="284.9 407 900.5500000000001 532"><defs><style type="text/css">
            @font-face {
                font-family: 'noto_regular';
                src: url('https://app.creately.com/d/assets/fonts/noto/noto-regular.woff') format('woff'),
                     url('https://app.creately.com/d/assets/fonts/noto/noto-regular.woff2') format('woff2');
                font-weight: normal;
                font-style: normal;
            }
        p {
            margin: 0;
        }
        </style></defs><defs>
        <style>
            span{ display: inline-block; }
            
        </style>
        
        </defs><g id="f0dwhxepfb"><g transform="translate(464.9 545)"><linearGradient id="f3795" x1="51" y1="-26" x2="51" y2="52" gradientUnits="userSpaceOnUse"><stop offset="0%" stop-color="rgba(255,255,255,1)"/><stop offset="100%" stop-color="rgba(143,198,61,1)"/></linearGradient><rect x="0" y="0" width="102" height="52" fill="url(#f3795)" stroke="#045f20" stroke-width="2" stroke-linecap="round" stroke-linejoin="round"/></g><g transform="translate(495.4, 561.5) rotate(0, 20.5, 9.5)" width="41" height="19"><text text-decoration="none" x="2.4015625000000007" fill="rgb(4, 95, 32)" font-weight="bold" font-size="10pt" font-family="Arial" y="13">Event</text><text text-decoration="none" x="38.6984375" fill="#4b4b4b" font-size="10pt" font-family="noto_regular" y="13"/></g></g><g id="9lp6lo1wck"><g transform="translate(864.95 545)"><linearGradient id="f3795" x1="51" y1="-26" x2="51" y2="52" gradientUnits="userSpaceOnUse"><stop offset="0%" stop-color="rgba(255,255,255,1)"/><stop offset="100%" stop-color="rgba(143,198,61,1)"/></linearGradient><rect x="0" y="0" width="102" height="52" fill="url(#f3795)" stroke="#045f20" stroke-width="2" stroke-linecap="round" stroke-linejoin="round"/></g><g transform="translate(892.95, 561.5) rotate(0, 23, 9.5)" width="46" height="19"><text text-decoration="none" x="2.3156250000000007" fill="rgb(4, 95, 32)" font-weight="bold" font-size="10pt" font-family="Arial" y="13">Admin</text><text text-decoration="none" x="43.784375" fill="#4b4b4b" font-size="10pt" font-family="noto_regular" y="13"/></g></g><g id="1on7ricuf1"><g transform="translate(649.95 535)"><path d="M 144.55766677856445,34.80469286441803 L 72.27883338928223,69.60938572883606 L 0,34.80469286441803 L 72.27883338928223,0 Z" fill="rgb(150, 232, 229)" stroke="rgb(4, 95, 32)" stroke-width="2" vector-effect="non-scaling-stroke" stroke-dasharray=""/></g><g transform="translate(682.2700000000001, 559.48) rotate(0, 0, 0)" width="97" height="19"><text text-decoration="none" x="0" fill="#005951" font-weight="bold" font-size="11pt" font-family="Arial" y="13">Created </text><text text-decoration="none" x="58.65625" fill="#005951" font-weight="bold" font-size="11pt" font-family="Arial" y="13">by </text><text text-decoration="none" x="79.84375" fill="#4b4b4b" font-size="10pt" font-family="noto_regular" y="13"/></g></g><g id="1szop05h4n"><g transform="translate(440 410)"><linearGradient id="a7418" x1="50.5" y1="76.5" x2="50.5" y2="0" gradientUnits="userSpaceOnUse"><stop offset="0%" stop-color="rgba(255,255,255,1)"/><stop offset="100%" stop-color="rgba(108,207,247,1)"/></linearGradient><ellipse cx="50.5" cy="25.5" rx="50.5" ry="25.5" fill="url(#a7418)" stroke="#0072bc" stroke-width="2" stroke-linecap="round" stroke-linejoin="round"/></g><g transform="translate(460, 426) rotate(0, 30.5, 9.5)" width="61" height="19"><text text-decoration="underline" x="2.7687500000000007" fill="rgb(20, 56, 114)" font-weight="bold" font-size="10pt" font-family="Arial" y="13">Event_id</text><text text-decoration="none" x="58.33125" fill="#4b4b4b" font-size="10pt" font-family="noto_regular" y="13"/></g></g><g id="p69zs6ytxf"><g transform="translate(319.9 435.5)"><linearGradient id="ad034" x1="50.5" y1="90" x2="50.5" y2="0" gradientUnits="userSpaceOnUse"><stop offset="0%" stop-color="rgba(255,255,255,1)"/><stop offset="100%" stop-color="rgba(108,207,247,1)"/></linearGradient><ellipse cx="50.5" cy="30" rx="50.5" ry="30" fill="url(#ad034)" stroke="#0072bc" stroke-width="2" stroke-linecap="round" stroke-linejoin="round"/></g><g transform="translate(329.9, 456.30000019073486) rotate(0, 40.5, 9.199999809265137)" width="81" height="18.399999618530273"><text text-decoration="none" x="27.237499999999997" fill="rgb(20, 56, 114)" font-weight="bold" font-size="10pt" font-family="noto_regular" y="14">Title</text><text text-decoration="none" x="53.8625" fill="#4b4b4b" font-size="10pt" font-family="noto_regular" y="14"/></g></g><g id="2lhn4l3o7b"><g transform="translate(289.9 520)"><linearGradient id="a7418" x1="50.5" y1="76.5" x2="50.5" y2="0" gradientUnits="userSpaceOnUse"><stop offset="0%" stop-color="rgba(255,255,255,1)"/><stop offset="100%" stop-color="rgba(108,207,247,1)"/></linearGradient><ellipse cx="50.5" cy="25.5" rx="50.5" ry="25.5" fill="url(#a7418)" stroke="#0072bc" stroke-width="2" stroke-linecap="round" stroke-linejoin="round"/></g><g transform="translate(303.9, 536) rotate(0, 36.5, 9.5)" width="73" height="19"><text text-decoration="none" x="6.549999999999997" fill="rgb(20, 56, 114)" font-weight="bold" font-size="10pt" font-family="Arial" y="13">start </text><text text-decoration="none" x="39.14375" fill="rgb(20, 56, 114)" font-weight="bold" font-size="10pt" font-family="Arial" y="13">date</text><text text-decoration="none" x="66.55" fill="#4b4b4b" font-size="10pt" font-family="noto_regular" y="13"/></g></g><g id="9r2geus3v4"><g transform="translate(554.9 435)"><linearGradient id="a7418" x1="50.5" y1="76.5" x2="50.5" y2="0" gradientUnits="userSpaceOnUse"><stop offset="0%" stop-color="rgba(255,255,255,1)"/><stop offset="100%" stop-color="rgba(108,207,247,1)"/></linearGradient><ellipse cx="50.5" cy="25.5" rx="50.5" ry="25.5" fill="url(#a7418)" stroke="#0072bc" stroke-width="2" stroke-linecap="round" stroke-linejoin="round"/></g><g transform="translate(550.9, 451) rotate(0, 54.5, 9.5)" width="109" height="19"><text text-decoration="none" x="6.042187499999997" fill="rgb(20, 56, 114)" font-weight="bold" font-size="10pt" font-family="Arial" y="13">Event_duration</text><text text-decoration="none" x="103.0578125" fill="#4b4b4b" font-size="10pt" font-family="noto_regular" y="13"/></g></g><g id="20me1r3c2j"><g transform="translate(300 605)"><linearGradient id="a7418" x1="50.5" y1="76.5" x2="50.5" y2="0" gradientUnits="userSpaceOnUse"><stop offset="0%" stop-color="rgba(255,255,255,1)"/><stop offset="100%" stop-color="rgba(108,207,247,1)"/></linearGradient><ellipse cx="50.5" cy="25.5" rx="50.5" ry="25.5" fill="url(#a7418)" stroke="#0072bc" stroke-width="2" stroke-linecap="round" stroke-linejoin="round"/></g><g transform="translate(317, 621) rotate(0, 33.5, 9.5)" width="67" height="19"><text text-decoration="none" x="4.659374999999997" fill="rgb(20, 56, 114)" font-weight="bold" font-size="10pt" font-family="Arial" y="13">End </text><text text-decoration="none" x="33.55" fill="rgb(20, 56, 114)" font-weight="bold" font-size="10pt" font-family="Arial" y="13">Date</text><text text-decoration="none" x="62.440625" fill="#4b4b4b" font-size="10pt" font-family="noto_regular" y="13"/></g></g><g id="8yg9mhdeo6"><g transform="translate(870 430)"><linearGradient id="a7418" x1="50.5" y1="76.5" x2="50.5" y2="0" gradientUnits="userSpaceOnUse"><stop offset="0%" stop-color="rgba(255,255,255,1)"/><stop offset="100%" stop-color="rgba(108,207,247,1)"/></linearGradient><ellipse cx="50.5" cy="25.5" rx="50.5" ry="25.5" fill="url(#a7418)" stroke="#0072bc" stroke-width="2" stroke-linecap="round" stroke-linejoin="round"/></g><g transform="translate(904, 446) rotate(0, 16.5, 9.5)" width="33" height="19"><text text-decoration="none" x="2.1046875000000007" fill="rgb(20, 56, 114)" font-weight="bold" font-size="10pt" font-family="Arial" y="13">Post</text><text text-decoration="none" x="30.9953125" fill="#4b4b4b" font-size="10pt" font-family="noto_regular" y="13"/></g></g><g id="24urwl9oc3"><g transform="translate(994.8499999999999 450)"><linearGradient id="a7418" x1="50.5" y1="76.5" x2="50.5" y2="0" gradientUnits="userSpaceOnUse"><stop offset="0%" stop-color="rgba(255,255,255,1)"/><stop offset="100%" stop-color="rgba(108,207,247,1)"/></linearGradient><ellipse cx="50.5" cy="25.5" rx="50.5" ry="25.5" fill="url(#a7418)" stroke="#0072bc" stroke-width="2" stroke-linecap="round" stroke-linejoin="round"/></g><g transform="translate(1010.3499999999999, 466) rotate(0, 35, 9.5)" width="70" height="19"><text text-decoration="none" x="3.940624999999997" fill="rgb(20, 56, 114)" font-weight="bold" font-size="10pt" font-family="Arial" y="13">password</text><text text-decoration="none" x="66.159375" fill="#4b4b4b" font-size="10pt" font-family="noto_regular" y="13"/></g></g><g id="94largl4se"><g transform="translate(1064.8 545)"><linearGradient id="a7418" x1="50.5" y1="76.5" x2="50.5" y2="0" gradientUnits="userSpaceOnUse"><stop offset="0%" stop-color="rgba(255,255,255,1)"/><stop offset="100%" stop-color="rgba(108,207,247,1)"/></linearGradient><ellipse cx="50.5" cy="25.5" rx="50.5" ry="25.5" fill="url(#a7418)" stroke="#0072bc" stroke-width="2" stroke-linecap="round" stroke-linejoin="round"/></g><g transform="translate(1093.8, 561) rotate(0, 21.5, 9.5)" width="43" height="19"><text text-decoration="none" x="3.3937500000000007" fill="rgb(20, 56, 114)" font-weight="bold" font-size="10pt" font-family="Arial" y="13">Name</text><text text-decoration="none" x="39.70625" fill="#4b4b4b" font-size="10pt" font-family="noto_regular" y="13"/></g></g><g id="1xtimu1mom"><g><path d="M 400,630 L 514.9,595" fill="none" stroke="#5573b7" stroke-width="1.5" stroke-linecap="round" stroke-linejoin="round"/><path d="M 514.9,595 L 504.9061979786658,592.0333878096294 L 508.25722336780876,603.034325444273 Z" fill="rgb(85,115,183)" stroke="#5573b7" stroke-width="1.5" stroke-linecap="round" stroke-linejoin="round"/></g></g><g id="2jp32pibrr"><g><path d="M 389.9,545 L 464.9,570" fill="none" stroke="#5573b7" stroke-width="1.5" stroke-linecap="round" stroke-linejoin="round"/><path d="M 464.9,570 L 458.4688896715488,561.7952643751936 L 454.8322703623552,572.7051223027745 Z" fill="rgb(85,115,183)" stroke="#5573b7" stroke-width="1.5" stroke-linecap="round" stroke-linejoin="round"/></g></g><g id="4d2zs7jn9h"><g><path d="M 411,484 L 516,545" fill="none" stroke="#5573b7" stroke-width="1.5" stroke-linecap="round" stroke-linejoin="round"/><path d="M 516,545 L 511.39885141099836,535.6455198759307 L 505.59083466416644,545.5710899587281 Z" fill="rgb(85,115,183)" stroke="#5573b7" stroke-width="1.5" stroke-linecap="round" stroke-linejoin="round"/></g></g><g id="1hx1z214et"><g><path d="M 490,460 L 514.9,545" fill="none" stroke="#5573b7" stroke-width="1.5" stroke-linecap="round" stroke-linejoin="round"/><path d="M 514.9,545 L 517.9735229328397,535.0385581610398 L 506.9373114195526,538.2715189455204 Z" fill="rgb(85,115,183)" stroke="#5573b7" stroke-width="1.5" stroke-linecap="round" stroke-linejoin="round"/></g></g><g id="antc1r65r8"><g><path d="M 604.9,485 L 514.9,545" fill="none" stroke="#5573b7" stroke-width="1.5" stroke-linecap="round" stroke-linejoin="round"/><path d="M 514.9,545 L 525.3247460790589,544.9608092252666 L 518.9456938224688,535.3922308403814 Z" fill="rgb(85,115,183)" stroke="#5573b7" stroke-width="1.5" stroke-linecap="round" stroke-linejoin="round"/></g></g><g id="25vwd28vcd"><g><path d="M 914.95,545 L 920,480" fill="none" stroke="#5573b7" stroke-width="1.5" stroke-linecap="round" stroke-linejoin="round"/><path d="M 920,480 L 913.5937200833358,488.2241379097766 L 925.059168876283,489.11491508522863 Z" fill="rgb(85,115,183)" stroke="#5573b7" stroke-width="1.5" stroke-linecap="round" stroke-linejoin="round"/></g></g><g id="1lqnym4w37"><g><path d="M 964.95,570 L 1044.85,500" fill="none" stroke="#5573b7" stroke-width="1.5" stroke-linecap="round" stroke-linejoin="round"/><path d="M 1044.85,500 L 1034.5203224521733,501.40521474786084 L 1042.098489061307,510.0551506345719 Z" fill="rgb(85,115,183)" stroke="#5573b7" stroke-width="1.5" stroke-linecap="round" stroke-linejoin="round"/></g></g><g id="1qvtd9y11q"><g><path d="M 964.95,570 L 1064.8,570" fill="none" stroke="#5573b7" stroke-width="1.5" stroke-linecap="round" stroke-linejoin="round"/><path d="M 1064.8,570 L 1056.104347826087,564.25 L 1056.104347826087,575.75 Z" fill="rgb(85,115,183)" stroke="#5573b7" stroke-width="1.5" stroke-linecap="round" stroke-linejoin="round"/></g></g><g id="2u9q66i98g"><g transform="translate(449.6 760)"><path d="M 129.7029733657837,32.35294222831726 L 64.85148668289185,64.70588445663452 L 0,32.35294222831726 L 64.85148668289185,0 Z" fill="rgb(150, 232, 229)" stroke="rgb(4, 95, 32)" stroke-width="2" vector-effect="non-scaling-stroke" stroke-dasharray=""/></g><g transform="translate(477.88, 781.93) rotate(0, 0, 0)" width="84" height="19"><text text-decoration="none" x="0" fill="#005951" font-weight="bold" font-size="11pt" font-family="Arial" y="13">Joined </text><text text-decoration="none" x="51.3125" fill="#005951" font-weight="bold" font-size="11pt" font-family="Arial" y="13">by </text><text text-decoration="none" x="72.5" fill="#4b4b4b" font-size="10pt" font-family="noto_regular" y="13"/></g></g><g id="46g33kx7zs"><g transform="translate(860 765)"><linearGradient id="b7717" x1="56.84971618652344" y1="-28.899688720703125" x2="56.84971618652344" y2="57.79937744140625" gradientUnits="userSpaceOnUse"><stop offset="0%" stop-color="rgba(255,255,255,1)"/><stop offset="100%" stop-color="rgba(143,198,61,1)"/></linearGradient><rect x="0" y="0" width="113.69943237304688" height="57.79937744140625" fill="url(#b7717)" stroke="#045f20" stroke-width="2" stroke-linecap="round" stroke-linejoin="round"/></g><g transform="translate(899.3497161865234, 784.3996887207031) rotate(0, 17.5, 9.5)" width="35" height="19"><text text-decoration="none" x="2.7375000000000007" fill="rgb(4, 95, 32)" font-weight="bold" font-size="10pt" font-family="Arial" y="13">Staff</text><text text-decoration="none" x="32.3625" fill="#4b4b4b" font-size="10pt" font-family="noto_regular" y="13"/></g></g><g id="1df8kqeviy"><g transform="translate(1001.45 660)"><linearGradient id="a7418" x1="50.5" y1="76.5" x2="50.5" y2="0" gradientUnits="userSpaceOnUse"><stop offset="0%" stop-color="rgba(255,255,255,1)"/><stop offset="100%" stop-color="rgba(108,207,247,1)"/></linearGradient><ellipse cx="50.5" cy="25.5" rx="50.5" ry="25.5" fill="url(#a7418)" stroke="#0072bc" stroke-width="2" stroke-linecap="round" stroke-linejoin="round"/></g><g transform="translate(1030.45, 676) rotate(0, 21.5, 9.5)" width="43" height="19"><text text-decoration="none" x="3.3937500000000007" fill="rgb(20, 56, 114)" font-weight="bold" font-size="10pt" font-family="Arial" y="13">Name</text><text text-decoration="none" x="39.70625" fill="#4b4b4b" font-size="10pt" font-family="noto_regular" y="13"/></g></g><g id="16t3ay4izd"><g transform="translate(1081.45 755)"><linearGradient id="a7418" x1="50.5" y1="76.5" x2="50.5" y2="0" gradientUnits="userSpaceOnUse"><stop offset="0%" stop-color="rgba(255,255,255,1)"/><stop offset="100%" stop-color="rgba(108,207,247,1)"/></linearGradient><ellipse cx="50.5" cy="25.5" rx="50.5" ry="25.5" fill="url(#a7418)" stroke="#0072bc" stroke-width="2" stroke-linecap="round" stroke-linejoin="round"/></g><g transform="translate(1102.45, 771) rotate(0, 29.5, 9.5)" width="59" height="19"><text text-decoration="none" x="2.8781250000000007" fill="rgb(20, 56, 114)" font-weight="bold" font-size="10pt" font-family="Arial" y="13">Address</text><text text-decoration="none" x="56.221875" fill="#4b4b4b" font-size="10pt" font-family="noto_regular" y="13"/></g></g><g id="vb8ygurlba"><g transform="translate(1031.45 850)"><linearGradient id="a7418" x1="50.5" y1="76.5" x2="50.5" y2="0" gradientUnits="userSpaceOnUse"><stop offset="0%" stop-color="rgba(255,255,255,1)"/><stop offset="100%" stop-color="rgba(108,207,247,1)"/></linearGradient><ellipse cx="50.5" cy="25.5" rx="50.5" ry="25.5" fill="url(#a7418)" stroke="#0072bc" stroke-width="2" stroke-linecap="round" stroke-linejoin="round"/></g><g transform="translate(1065.45, 866) rotate(0, 16.5, 9.5)" width="33" height="19"><text text-decoration="none" x="2.1046875000000007" fill="rgb(20, 56, 114)" font-weight="bold" font-size="10pt" font-family="Arial" y="13">Post</text><text text-decoration="none" x="30.9953125" fill="#4b4b4b" font-size="10pt" font-family="noto_regular" y="13"/></g></g><g id="1o9os223y4"><g><path d="M 975,795 L 1081.45,850" fill="none" stroke="#5573b7" stroke-width="1.5" stroke-linecap="round" stroke-linejoin="round"/><path d="M 1081.45,850 L 1076.3639788579874,840.9000408971974 L 1071.085185131889,851.1169062088918 Z" fill="rgb(85,115,183)" stroke="#5573b7" stroke-width="1.5" stroke-linecap="round" stroke-linejoin="round"/></g></g><g id="2ezifdectu"><g><path d="M 975,795 L 1081.45,780" fill="none" stroke="#5573b7" stroke-width="1.5" stroke-linecap="round" stroke-linejoin="round"/><path d="M 1081.45,780 L 1072.037100081368,775.5195779382414 L 1073.6417267714016,786.9070786818476 Z" fill="rgb(85,115,183)" stroke="#5573b7" stroke-width="1.5" stroke-linecap="round" stroke-linejoin="round"/></g></g><g id="64sh1nljd1"><g><path d="M 975,795 L 1051.45,710" fill="none" stroke="#5573b7" stroke-width="1.5" stroke-linecap="round" stroke-linejoin="round"/><path d="M 1051.45,710 L 1041.3598252830627,712.6201604743521 L 1049.9102084377782,720.3104756764462 Z" fill="rgb(85,115,183)" stroke="#5573b7" stroke-width="1.5" stroke-linecap="round" stroke-linejoin="round"/></g></g><g id="6cffracms8"><g transform="translate(895 885)"><linearGradient id="a7418" x1="50.5" y1="76.5" x2="50.5" y2="0" gradientUnits="userSpaceOnUse"><stop offset="0%" stop-color="rgba(255,255,255,1)"/><stop offset="100%" stop-color="rgba(108,207,247,1)"/></linearGradient><ellipse cx="50.5" cy="25.5" rx="50.5" ry="25.5" fill="url(#a7418)" stroke="#0072bc" stroke-width="2" stroke-linecap="round" stroke-linejoin="round"/></g><g transform="translate(899, 901) rotate(0, 46.5, 9.5)" width="93" height="19"><text text-decoration="none" x="6.542187499999997" fill="rgb(20, 56, 114)" font-weight="bold" font-size="10pt" font-family="Arial" y="13">No </text><text text-decoration="none" x="28.026562499999997" fill="rgb(20, 56, 114)" font-weight="bold" font-size="10pt" font-family="Arial" y="13">of </text><text text-decoration="none" x="44.3234375" fill="rgb(20, 56, 114)" font-weight="bold" font-size="10pt" font-family="Arial" y="13">clients</text><text text-decoration="none" x="86.5578125" fill="#4b4b4b" font-size="10pt" font-family="noto_regular" y="13"/></g></g><g id="15qwvhrhjw"><g><path d="M 915,825 L 945,885" fill="none" stroke="#5573b7" stroke-width="1.5" stroke-linecap="round" stroke-linejoin="round"/><path d="M 945,885 L 946.2541424743368,874.6508940780499 L 935.9682297778378,879.7938504262994 Z" fill="rgb(85,115,183)" stroke="#5573b7" stroke-width="1.5" stroke-linecap="round" stroke-linejoin="round"/></g></g><g id="2ieqlucj53"><g transform="translate(745 865)"><linearGradient id="a7418" x1="50.5" y1="76.5" x2="50.5" y2="0" gradientUnits="userSpaceOnUse"><stop offset="0%" stop-color="rgba(255,255,255,1)"/><stop offset="100%" stop-color="rgba(108,207,247,1)"/></linearGradient><ellipse cx="50.5" cy="25.5" rx="50.5" ry="25.5" fill="url(#a7418)" stroke="#0072bc" stroke-width="2" stroke-linecap="round" stroke-linejoin="round"/></g><g transform="translate(768.5, 881) rotate(0, 27, 9.5)" width="54" height="19"><text text-decoration="underline" x="3.3468750000000007" fill="rgb(20, 56, 114)" font-weight="bold" font-size="10pt" font-family="Arial" y="13">staff_id</text><text text-decoration="none" x="50.753125" fill="#4b4b4b" font-size="10pt" font-family="noto_regular" y="13"/></g></g><g id="9ilelk063o"><g><path d="M 795,865 L 915,825" fill="none" stroke="#5573b7" stroke-width="1.5" stroke-linecap="round" stroke-linejoin="round"/><path d="M 915,825 L 904.9322703623552,822.2948776972255 L 908.5688896715488,833.2047356248064 Z" fill="rgb(85,115,183)" stroke="#5573b7" stroke-width="1.5" stroke-linecap="round" stroke-linejoin="round"/></g></g><g id="1c015x61ak"><g transform="translate(865 630)"><linearGradient id="a7418" x1="50.5" y1="76.5" x2="50.5" y2="0" gradientUnits="userSpaceOnUse"><stop offset="0%" stop-color="rgba(255,255,255,1)"/><stop offset="100%" stop-color="rgba(108,207,247,1)"/></linearGradient><ellipse cx="50.5" cy="25.5" rx="50.5" ry="25.5" fill="url(#a7418)" stroke="#0072bc" stroke-width="2" stroke-linecap="round" stroke-linejoin="round"/></g><g transform="translate(899.5, 646) rotate(0, 16, 9.5)" width="32" height="19"><text text-decoration="none" x="1.2375000000000007" fill="rgb(20, 56, 114)" font-weight="bold" font-size="10pt" font-family="Arial" y="13">DOB</text><text text-decoration="none" x="30.8625" fill="#4b4b4b" font-size="10pt" font-family="noto_regular" y="13"/></g></g><g id="401b19bv88"><g><path d="M 864.95,570 L 794.95,570" fill="none" stroke="#0054a5" stroke-width="2" stroke-linecap="round" stroke-linejoin="round"/><path d="M 794.95,570 L 803.645652173913,575.75 L 803.645652173913,564.25 Z" fill="rgb(0,84,165)" stroke="#0054a5" stroke-width="2" stroke-linecap="round" stroke-linejoin="round"/></g></g><g id="b0q2osx1z2"><g><path d="M 514.9,595 L 514.6,760" fill="none" stroke="#0054a5" stroke-width="2" stroke-linecap="round" stroke-linejoin="round"/><path d="M 514.6,760 L 520.3658007464386,751.3148167272045 L 508.8658197546559,751.2939076708558 Z" fill="rgb(0,84,165)" stroke="#0054a5" stroke-width="2" stroke-linecap="round" stroke-linejoin="round"/></g></g><g id="32twkt2v18"><g><path d="M 564.9,570 L 649.95,570" fill="none" stroke="#0054a5" stroke-width="1.5" stroke-linecap="round" stroke-linejoin="round"/><path d="M 649.95,570 L 641.254347826087,564.25 L 641.254347826087,575.75 Z" fill="rgb(0,84,165)" stroke="#0054a5" stroke-width="1.5" stroke-linecap="round" stroke-linejoin="round"/></g></g><g id="1koll8gr31"><g><path d="M 915,680 L 915,765" fill="none" stroke="#0072bc" stroke-width="2" stroke-linecap="round" stroke-linejoin="round"/><path d="M 915,765 L 920.75,756.304347826087 L 909.25,756.304347826087 Z" fill="rgb(0,114,188)" stroke="#0072bc" stroke-width="2" stroke-linecap="round" stroke-linejoin="round"/></g></g><g id="6gxsbauy44"><g><path d="M 579.6,795 L 864.95,570" fill="none" stroke="#5573b7" stroke-width="1.5" stroke-linecap="round" stroke-linejoin="round"/><path d="M 864.95,570 L 854.561457367855,570.8689353887287 L 861.6819784475462,579.8993384557947 Z" fill="rgb(85,115,183)" stroke="#5573b7" stroke-width="1.5" stroke-linecap="round" stroke-linejoin="round"/></g></g><g id="1gg8irxqf7"><g><path d="M 579.6,795 L 860,795" fill="none" stroke="#5573b7" stroke-width="1.5" stroke-linecap="round" stroke-linejoin="round"/><path d="M 860,795 L 851.304347826087,789.25 L 851.304347826087,800.75 Z" fill="rgb(85,115,183)" stroke="#5573b7" stroke-width="1.5" stroke-linecap="round" stroke-linejoin="round"/></g></g></svg>